<?xml version="1.0" encoding="utf-8"?>
<!-- Generator: Adobe Illustrator 24.3.0, SVG Export Plug-In . SVG Version: 6.00 Build 0)  -->
<svg version="1.1" xmlns="http://www.w3.org/2000/svg" xmlns:xlink="http://www.w3.org/1999/xlink" x="0px" y="0px"
	 viewBox="0 0 59.53 59.53" style="enable-background:new 0 0 59.53 59.53;" xml:space="preserve">
<style type="text/css">
	.st0{fill:#F47B3D;}
</style>
<g id="fundo">
</g>
<g id="lab_x5F_grande">
	<g>
		<circle cx="30.13" cy="29.76" r="28.34"/>
		<circle class="st0" cx="30.13" cy="29.76" r="27.26"/>
		<g>
			<polygon points="22.69,31.45 17.17,31.45 17.17,13.17 13.82,13.17 13.82,34.5 22.69,34.5 			"/>
			<path d="M31.55,13.17h-4.54L23.54,34.5h3.11l0.61-4.17h3.81v-0.06l0.61,4.24h3.35L31.55,13.17z M27.65,27.43l1.46-10.54h0.06
				l1.49,10.54H27.65z"/>
			<path d="M47,29.44v-1.83c0-2.4-0.83-3.88-2.5-4.45V23.1c0.73-0.3,1.27-0.8,1.63-1.49c0.36-0.69,0.53-1.58,0.53-2.68v-0.85
				c0-1.67-0.4-2.9-1.19-3.7c-0.79-0.8-2.05-1.2-3.78-1.2h-5.06V34.5h5.27c1.67,0,2.93-0.43,3.79-1.3C46.57,32.34,47,31.09,47,29.44
				z M39.99,16.21h1.61c0.59,0,1.02,0.17,1.3,0.52c0.27,0.35,0.41,0.9,0.41,1.68v1.19c0,0.81-0.17,1.39-0.5,1.74
				c-0.34,0.35-0.84,0.52-1.51,0.52h-1.31V16.21z M43.65,29.35c0,0.77-0.14,1.32-0.43,1.63c-0.28,0.32-0.72,0.47-1.31,0.47h-1.92
				V24.9h1.49c0.77,0,1.33,0.19,1.66,0.56c0.34,0.38,0.5,1.05,0.5,2.03V29.35z"/>
			<path d="M15.81,40.6c-0.52-0.45-0.87-0.83-1.07-1.15c-0.2-0.32-0.29-0.65-0.29-1.02c0-0.64,0.26-0.96,0.79-0.96
				c0.26,0,0.45,0.08,0.59,0.24c0.13,0.16,0.2,0.41,0.2,0.75v0.52h1.49v-0.42c0-0.81-0.19-1.44-0.58-1.87
				c-0.39-0.43-0.96-0.65-1.71-0.65c-0.76,0-1.35,0.22-1.75,0.65c-0.4,0.44-0.6,1.05-0.6,1.84c0,0.58,0.13,1.11,0.39,1.57
				c0.26,0.46,0.71,0.98,1.36,1.56c0.52,0.45,0.87,0.83,1.06,1.15c0.19,0.32,0.29,0.69,0.29,1.11c0,0.35-0.07,0.61-0.21,0.77
				c-0.14,0.16-0.34,0.24-0.61,0.24c-0.54,0-0.82-0.32-0.82-0.97v-0.69h-1.49v0.57c0,0.81,0.2,1.44,0.59,1.87
				c0.39,0.43,0.97,0.65,1.73,0.65c0.77,0,1.36-0.22,1.77-0.66c0.41-0.44,0.61-1.07,0.61-1.89c0-0.63-0.12-1.18-0.37-1.65
				C16.92,41.69,16.47,41.17,15.81,40.6z"/>
			<path d="M47.05,42.16c-0.25-0.47-0.7-0.99-1.36-1.56c-0.52-0.45-0.87-0.83-1.07-1.15c-0.2-0.32-0.29-0.65-0.29-1.02
				c0-0.64,0.26-0.96,0.79-0.96c0.26,0,0.45,0.08,0.59,0.24c0.13,0.16,0.2,0.41,0.2,0.75v0.52h1.49v-0.42
				c0-0.81-0.19-1.44-0.58-1.87c-0.39-0.43-0.96-0.65-1.71-0.65c-0.76,0-1.35,0.22-1.75,0.65c-0.4,0.44-0.6,1.05-0.6,1.84
				c0,0.58,0.13,1.11,0.39,1.57c0.26,0.46,0.71,0.98,1.36,1.56c0.52,0.45,0.87,0.83,1.06,1.15c0.19,0.32,0.29,0.69,0.29,1.11
				c0,0.35-0.07,0.61-0.21,0.77c-0.14,0.16-0.34,0.24-0.61,0.24c-0.54,0-0.82-0.32-0.82-0.97v-0.69h-1.49v0.57
				c0,0.81,0.2,1.44,0.59,1.87c0.39,0.43,0.97,0.65,1.73,0.65c0.77,0,1.36-0.22,1.77-0.66c0.41-0.44,0.61-1.07,0.61-1.89
				C47.42,43.18,47.29,42.63,47.05,42.16z"/>
			<polygon points="18.74,46.22 19.71,46.22 20.02,36.18 18.45,36.18 			"/>
			<path d="M23.89,40.6c-0.52-0.45-0.87-0.83-1.07-1.15c-0.2-0.32-0.29-0.65-0.29-1.02c0-0.64,0.26-0.96,0.79-0.96
				c0.26,0,0.45,0.08,0.59,0.24c0.13,0.16,0.2,0.41,0.2,0.75v0.52h1.49v-0.42c0-0.81-0.19-1.44-0.58-1.87
				c-0.39-0.43-0.96-0.65-1.71-0.65c-0.76,0-1.35,0.22-1.75,0.65c-0.4,0.44-0.6,1.05-0.6,1.84c0,0.58,0.13,1.11,0.39,1.57
				c0.26,0.46,0.71,0.98,1.36,1.56c0.52,0.45,0.87,0.83,1.06,1.15c0.19,0.32,0.29,0.69,0.29,1.11c0,0.35-0.07,0.61-0.21,0.77
				c-0.14,0.16-0.34,0.24-0.61,0.24c-0.54,0-0.82-0.32-0.82-0.97v-0.69h-1.49v0.57c0,0.81,0.2,1.44,0.59,1.87
				c0.39,0.43,0.97,0.65,1.73,0.65c0.77,0,1.36-0.22,1.77-0.66c0.41-0.44,0.61-1.07,0.61-1.89c0-0.63-0.12-1.18-0.37-1.65
				C25.01,41.69,24.55,41.17,23.89,40.6z"/>
			<polygon points="26.12,37.62 27.76,37.62 27.76,46.22 29.34,46.22 29.34,37.62 30.99,37.62 30.99,36.18 26.12,36.18 			"/>
			<polygon points="31.75,46.22 36.05,46.22 36.05,44.78 33.33,44.78 33.33,41.7 35.49,41.7 35.49,40.27 33.33,40.27 33.33,37.62 
				36.05,37.62 36.05,36.18 31.75,36.18 			"/>
			<path d="M41.64,45v-1.76c0-0.59-0.08-1.07-0.24-1.42c-0.16-0.35-0.43-0.59-0.81-0.7v-0.03c0.69-0.28,1.03-0.94,1.03-1.98v-0.62
				c0-0.78-0.19-1.36-0.56-1.74c-0.37-0.38-0.97-0.57-1.78-0.57h-2.34v10.03h1.58v-4.3h0.54c0.36,0,0.62,0.09,0.77,0.27
				c0.15,0.18,0.22,0.5,0.22,0.96v1.83c0,0.37,0.01,0.63,0.03,0.77c0.02,0.14,0.06,0.3,0.11,0.46h1.61
				c-0.08-0.17-0.12-0.35-0.14-0.52C41.65,45.52,41.64,45.29,41.64,45z M40.05,39.42c0,0.38-0.08,0.65-0.24,0.82
				c-0.16,0.16-0.39,0.24-0.71,0.24h-0.57v-2.87h0.72c0.28,0,0.48,0.08,0.61,0.24c0.13,0.16,0.19,0.43,0.19,0.79V39.42z"/>
		</g>
		<polygon class="st0" points="19.24,31.45 19.73,32.45 20.84,32.61 20.04,33.4 20.23,34.5 19.24,33.98 18.24,34.5 18.43,33.4 
			17.63,32.61 18.74,32.45 		"/>
	</g>
</g>
</svg>
